<?xml version="1.0" encoding="UTF-8"?>
<svg id="Layer_1" data-name="Layer 1" xmlns="http://www.w3.org/2000/svg" viewBox="0 0 375 252.85">
  <defs>
    <style>
      .cls-1 {
        fill: #a4814a;
      }

      .cls-2 {
        fill: #034b27;
      }
    </style>
  </defs>
  <g>
    <path class="cls-1" d="M26.39,225.13h-8.26v-2.93h8.26v2.93Z"/>
    <path class="cls-2" d="M42.16,221.63v5.32c0,1.04.06,1.69.19,1.96.13.27.35.48.68.64.33.16.92.24,1.79.24v.52h-9.76v-.52c.89,0,1.49-.08,1.81-.25.32-.17.54-.38.67-.64.13-.26.19-.92.19-1.95v-12.46c0-1.04-.06-1.69-.19-1.96-.13-.27-.35-.48-.67-.64s-.92-.24-1.8-.24v-.52h8.37c2.76,0,4.73.49,5.93,1.47s1.8,2.21,1.8,3.68c0,1.25-.39,2.31-1.16,3.2s-1.84,1.49-3.2,1.81c-.92.23-2.46.34-4.64.34ZM42.16,212.23v8.3c.31.02.55.03.71.03,1.15,0,2.04-.34,2.66-1.03s.93-1.74.93-3.18-.31-2.47-.93-3.13-1.55-.99-2.79-.99h-.58Z"/>
    <path class="cls-2" d="M58.52,217.09v3c.88-1.37,1.65-2.28,2.31-2.73s1.3-.67,1.91-.67c.53,0,.95.16,1.27.49.32.33.47.79.47,1.38,0,.63-.15,1.12-.46,1.47-.31.35-.68.52-1.11.52-.5,0-.93-.16-1.3-.48s-.59-.5-.65-.54c-.09-.06-.2-.08-.33-.08-.27,0-.53.1-.78.31-.39.32-.68.78-.88,1.37-.3.92-.45,1.93-.45,3.03v3.84c.01.54.05.88.11,1.03.11.26.28.44.5.56.22.12.6.19,1.13.22v.51h-7.15v-.51c.58-.05.97-.21,1.17-.47.2-.27.3-.98.3-2.13v-7.32c0-.76-.04-1.24-.11-1.45-.09-.26-.23-.46-.41-.58s-.5-.21-.95-.25v-.52h5.41Z"/>
    <path class="cls-2" d="M71.62,216.69c1.15,0,2.22.3,3.21.89s1.74,1.44,2.26,2.54c.51,1.09.77,2.29.77,3.6,0,1.88-.48,3.45-1.43,4.72-1.15,1.53-2.74,2.29-4.77,2.29s-3.53-.7-4.6-2.1-1.61-3.02-1.61-4.86.55-3.55,1.65-4.96c1.1-1.41,2.61-2.12,4.52-2.12ZM71.67,217.7c-.48,0-.89.18-1.24.54-.34.36-.57,1.08-.68,2.15-.11,1.07-.16,2.56-.16,4.47,0,1.01.07,1.95.2,2.83.1.67.33,1.18.67,1.53s.73.52,1.16.52.78-.12,1.06-.35c.37-.32.61-.77.74-1.34.19-.9.28-2.71.28-5.44,0-1.61-.09-2.71-.27-3.31s-.44-1.04-.79-1.31c-.25-.2-.57-.3-.96-.3Z"/>
    <path class="cls-2" d="M85.13,212.25v4.84h3.14v1.4h-3.14v8.17c0,.77.04,1.26.11,1.48.07.22.2.4.38.54s.34.21.5.21c.61,0,1.19-.47,1.74-1.4l.42.31c-.76,1.81-2.01,2.72-3.72,2.72-.84,0-1.55-.23-2.13-.7-.58-.47-.95-.99-1.11-1.57-.09-.32-.14-1.19-.14-2.61v-7.15h-1.73v-.5c1.19-.84,2.2-1.72,3.04-2.65.84-.92,1.56-1.96,2.19-3.1h.47Z"/>
    <path class="cls-2" d="M100.74,223.23h-7.26c.08,1.76.55,3.14,1.4,4.16.65.78,1.44,1.18,2.35,1.18.57,0,1.08-.16,1.54-.47s.96-.88,1.49-1.71l.48.31c-.72,1.46-1.51,2.5-2.38,3.11-.87.61-1.87.91-3.02.91-1.96,0-3.45-.75-4.46-2.27-.81-1.22-1.22-2.73-1.22-4.53,0-2.21.6-3.97,1.79-5.27,1.19-1.31,2.59-1.96,4.2-1.96,1.34,0,2.5.55,3.49,1.65.99,1.1,1.52,2.73,1.59,4.89ZM97.26,222.28c0-1.52-.08-2.56-.25-3.13-.17-.57-.42-1-.77-1.29-.2-.17-.46-.25-.79-.25-.49,0-.89.24-1.2.72-.56.84-.84,1.99-.84,3.46v.5h3.85Z"/>
    <path class="cls-2" d="M113.2,226.92l.44.34c-.62,1.17-1.4,2.04-2.33,2.61-.93.57-1.92.86-2.97.86-1.77,0-3.18-.67-4.23-2-1.06-1.33-1.59-2.93-1.59-4.8s.48-3.39,1.44-4.76c1.16-1.65,2.76-2.48,4.8-2.48,1.37,0,2.46.34,3.26,1.03.81.69,1.21,1.46,1.21,2.31,0,.54-.16.97-.49,1.29-.33.32-.75.48-1.28.48-.56,0-1.02-.18-1.38-.55-.36-.37-.59-1.02-.67-1.97-.06-.59-.19-1.01-.41-1.25s-.47-.35-.76-.35c-.45,0-.84.24-1.16.72-.49.73-.74,1.84-.74,3.34,0,1.25.2,2.44.59,3.58s.94,1.99,1.63,2.54c.52.41,1.13.61,1.84.61.46,0,.9-.11,1.32-.33s.91-.63,1.47-1.23Z"/>
    <path class="cls-2" d="M120.53,212.25v4.84h3.14v1.4h-3.14v8.17c0,.77.04,1.26.11,1.48.07.22.2.4.38.54s.34.21.5.21c.61,0,1.19-.47,1.74-1.4l.43.31c-.77,1.81-2.01,2.72-3.72,2.72-.84,0-1.55-.23-2.13-.7-.58-.47-.95-.99-1.11-1.57-.09-.32-.14-1.19-.14-2.61v-7.15h-1.73v-.5c1.19-.84,2.2-1.72,3.04-2.65.84-.92,1.56-1.96,2.19-3.1h.47Z"/>
    <path class="cls-2" d="M130.1,217.09v10.49c0,.93.11,1.53.33,1.79.22.26.64.41,1.28.45v.51h-7.15v-.51c.58-.02,1.02-.19,1.3-.51.19-.22.28-.79.28-1.73v-7.73c0-.93-.11-1.53-.33-1.79-.22-.26-.64-.41-1.26-.45v-.52h5.55ZM128.12,210.67c.61,0,1.13.21,1.56.64s.64.95.64,1.55-.21,1.12-.64,1.54-.95.64-1.55.64-1.12-.21-1.54-.64c-.42-.42-.64-.94-.64-1.54s.21-1.12.64-1.55c.43-.43.94-.64,1.54-.64Z"/>
    <path class="cls-2" d="M138.4,217.09v1.71c.68-.74,1.33-1.27,1.95-1.61s1.29-.5,2.01-.5c.86,0,1.57.24,2.14.72s.94,1.07,1.13,1.78c.15.54.23,1.57.23,3.1v5.15c0,1.02.09,1.65.28,1.9.18.25.57.41,1.15.47v.51h-6.7v-.51c.5-.07.86-.27,1.08-.62.15-.24.23-.82.23-1.76v-5.89c0-1.09-.04-1.77-.13-2.05-.08-.28-.23-.5-.43-.66-.2-.16-.43-.23-.67-.23-.81,0-1.57.58-2.27,1.74v7.09c0,.99.09,1.62.28,1.88.18.26.53.43,1.03.5v.51h-6.7v-.51c.56-.06.95-.24,1.19-.54.16-.21.24-.82.24-1.84v-7.48c0-1-.09-1.62-.28-1.87-.18-.25-.57-.41-1.15-.48v-.52h5.4Z"/>
    <path class="cls-2" d="M157.61,217.24h4.46v1.56h-2.54c.46.46.78.88.96,1.26.23.51.34,1.04.34,1.6,0,.94-.26,1.76-.79,2.46-.52.69-1.24,1.24-2.14,1.63s-1.7.59-2.4.59c-.06,0-.62-.02-1.7-.07-.42,0-.78.14-1.07.42s-.43.61-.43,1c0,.34.13.62.39.84s.68.33,1.27.33l2.45-.03c1.98,0,3.35.22,4.09.65,1.07.6,1.6,1.53,1.6,2.79,0,.8-.25,1.53-.74,2.19-.49.66-1.14,1.14-1.94,1.45-1.22.46-2.62.69-4.21.69-1.19,0-2.27-.12-3.26-.35-.98-.23-1.69-.55-2.11-.96-.42-.41-.64-.84-.64-1.3s.16-.82.49-1.17c.33-.34.93-.63,1.82-.87-1.23-.6-1.84-1.44-1.84-2.52,0-.65.25-1.28.75-1.9.5-.61,1.29-1.15,2.38-1.6-1.27-.46-2.18-1.07-2.75-1.83s-.85-1.63-.85-2.62c0-1.29.53-2.42,1.59-3.36,1.06-.95,2.42-1.42,4.08-1.42.88,0,1.79.18,2.72.55ZM154.33,232.28c-.96,0-1.6.08-1.91.24-.54.29-.81.69-.81,1.19s.28.92.84,1.31,1.6.59,3.14.59c1.31,0,2.34-.17,3.09-.52.75-.35,1.13-.84,1.13-1.47,0-.24-.07-.43-.21-.59-.25-.28-.64-.48-1.15-.58-.51-.1-1.89-.16-4.11-.16ZM155.16,217.57c-.55,0-1.01.28-1.39.83-.38.55-.57,1.7-.57,3.43,0,1.41.19,2.37.56,2.9.37.52.81.79,1.32.79.57,0,1.04-.26,1.42-.78.38-.52.57-1.53.57-3.03,0-1.69-.21-2.84-.64-3.46-.3-.45-.73-.68-1.27-.68Z"/>
    <path class="cls-2" d="M198.11,211.13v.52c-.36.03-.66.13-.91.3s-.46.43-.65.78c-.06.11-.35.85-.89,2.2l-6.02,15.85h-.55l-4.76-12.38-5.24,12.38h-.52l-6.32-15.68c-.64-1.58-1.09-2.53-1.35-2.86-.25-.33-.68-.52-1.29-.58v-.52h8.33v.52c-.67.02-1.12.12-1.34.3-.22.18-.33.41-.33.69,0,.36.23,1.12.69,2.28l3.77,9.32,3.02-7.28-.79-2.04c-.43-1.11-.77-1.86-1.01-2.23-.24-.37-.51-.64-.81-.8s-.76-.24-1.35-.24v-.52h9.3v.52c-.65,0-1.12.06-1.4.16-.2.07-.35.18-.47.33-.11.16-.17.33-.17.53,0,.22.21.88.64,2l3.5,9.09,3.13-8.23c.33-.85.53-1.43.61-1.74.08-.31.11-.6.11-.86,0-.39-.13-.69-.4-.91-.26-.22-.77-.34-1.51-.36v-.52h4.98Z"/>
    <path class="cls-2" d="M204.75,211.13v7.66c.73-.76,1.39-1.3,2-1.62s1.23-.47,1.88-.47c.83,0,1.54.24,2.13.71.59.47.98,1.03,1.17,1.66.19.64.29,1.71.29,3.22v5.17c0,1.01.09,1.64.28,1.89.19.25.57.41,1.15.47v.51h-6.71v-.51c.47-.07.83-.25,1.06-.57.17-.25.26-.84.26-1.8v-5.9c0-1.09-.04-1.78-.13-2.06s-.23-.5-.43-.65c-.2-.16-.43-.23-.69-.23-.38,0-.75.13-1.11.39-.36.26-.75.71-1.16,1.37v7.09c0,.94.07,1.53.21,1.77.18.32.55.52,1.1.59v.51h-6.71v-.51c.56-.06.95-.24,1.19-.54.16-.21.24-.82.24-1.83v-13.45c0-1-.09-1.62-.28-1.87-.18-.25-.57-.41-1.15-.48v-.52h5.4Z"/>
    <path class="cls-2" d="M222.78,228.37c-1.61,1.43-3.06,2.14-4.35,2.14-.75,0-1.38-.25-1.88-.74-.5-.5-.75-1.12-.75-1.86,0-1.01.43-1.92,1.3-2.73.87-.81,2.76-1.88,5.68-3.22v-1.33c0-1-.05-1.63-.16-1.89s-.31-.49-.62-.68-.64-.29-1.02-.29c-.61,0-1.12.14-1.51.41-.25.17-.37.37-.37.59,0,.2.13.44.4.74.36.41.54.8.54,1.18,0,.46-.17.86-.52,1.18-.34.33-.79.49-1.35.49-.6,0-1.09-.18-1.49-.54-.4-.36-.6-.78-.6-1.26,0-.68.27-1.33.81-1.95s1.29-1.09,2.25-1.42,1.96-.5,3-.5c1.25,0,2.25.27,2.98.8s1.21,1.11,1.42,1.73c.13.4.2,1.31.2,2.73v5.14c0,.6.02.98.07,1.14.05.16.12.27.21.35.09.08.2.11.33.11.25,0,.5-.17.75-.52l.42.34c-.47.7-.96,1.21-1.47,1.52s-1.08.47-1.72.47c-.75,0-1.34-.18-1.77-.53-.42-.35-.68-.89-.78-1.61ZM222.78,227.34v-4.43c-1.14.67-1.99,1.39-2.55,2.15-.37.51-.55,1.02-.55,1.54,0,.43.16.82.47,1.15.24.25.57.38.99.38.47,0,1.02-.26,1.64-.79Z"/>
    <path class="cls-2" d="M235.22,212.25v4.84h3.14v1.4h-3.14v8.17c0,.77.04,1.26.11,1.48.07.22.2.4.38.54s.34.21.5.21c.61,0,1.19-.47,1.74-1.4l.42.31c-.76,1.81-2.01,2.72-3.72,2.72-.84,0-1.55-.23-2.13-.7-.58-.47-.95-.99-1.11-1.57-.09-.32-.14-1.19-.14-2.61v-7.15h-1.73v-.5c1.19-.84,2.2-1.72,3.04-2.65.84-.92,1.57-1.96,2.19-3.1h.47Z"/>
    <path class="cls-2" d="M259.72,223.79l5.21-12.66h7.82v.52h-.62c-.57,0-1.02.1-1.36.3-.24.13-.42.35-.57.67-.1.23-.16.82-.16,1.77v12.66c0,.98.05,1.6.16,1.84s.32.46.64.64c.32.18.75.28,1.29.28h.62v.52h-10.03v-.52h.62c.57,0,1.02-.1,1.36-.3.24-.13.42-.36.57-.68.1-.23.16-.82.16-1.78v-14.23l-7.36,17.52h-.34l-7.48-17.39v13.52c0,.94.02,1.52.07,1.74.12.47.39.86.8,1.15.41.3,1.06.45,1.93.45v.52h-6.57v-.52h.2c.42,0,.82-.06,1.19-.21.37-.15.65-.34.83-.59.19-.25.33-.59.44-1.03.02-.1.03-.58.03-1.44v-12.15c0-.97-.05-1.58-.16-1.82-.1-.24-.32-.45-.64-.64-.32-.18-.75-.28-1.29-.28h-.61v-.52h7.85l5.39,12.66Z"/>
    <path class="cls-2" d="M281.56,228.37c-1.61,1.43-3.06,2.14-4.35,2.14-.75,0-1.38-.25-1.88-.74-.5-.5-.75-1.12-.75-1.86,0-1.01.43-1.92,1.3-2.73.87-.81,2.76-1.88,5.68-3.22v-1.33c0-1-.05-1.63-.16-1.89s-.31-.49-.62-.68-.64-.29-1.02-.29c-.61,0-1.12.14-1.51.41-.25.17-.37.37-.37.59,0,.2.13.44.4.74.36.41.54.8.54,1.18,0,.46-.17.86-.52,1.18-.34.33-.79.49-1.35.49-.6,0-1.09-.18-1.49-.54-.4-.36-.6-.78-.6-1.26,0-.68.27-1.33.81-1.95s1.29-1.09,2.25-1.42,1.96-.5,3-.5c1.25,0,2.25.27,2.98.8s1.21,1.11,1.42,1.73c.13.4.2,1.31.2,2.73v5.14c0,.6.02.98.07,1.14.05.16.12.27.21.35.09.08.2.11.33.11.25,0,.5-.17.75-.52l.42.34c-.47.7-.96,1.21-1.47,1.52s-1.08.47-1.72.47c-.75,0-1.34-.18-1.77-.53-.42-.35-.68-.89-.78-1.61ZM281.56,227.34v-4.43c-1.14.67-1.99,1.39-2.55,2.15-.37.51-.55,1.02-.55,1.54,0,.43.16.82.47,1.15.24.25.57.38.99.38.47,0,1.02-.26,1.64-.79Z"/>
    <path class="cls-2" d="M294,212.25v4.84h3.14v1.4h-3.14v8.17c0,.77.04,1.26.11,1.48.07.22.2.4.38.54s.34.21.5.21c.61,0,1.19-.47,1.74-1.4l.42.31c-.76,1.81-2.01,2.72-3.72,2.72-.84,0-1.55-.23-2.13-.7-.58-.47-.95-.99-1.11-1.57-.09-.32-.14-1.19-.14-2.61v-7.15h-1.73v-.5c1.19-.84,2.2-1.72,3.04-2.65.84-.92,1.57-1.96,2.19-3.1h.47Z"/>
    <path class="cls-2" d="M303.66,212.25v4.84h3.14v1.4h-3.14v8.17c0,.77.04,1.26.11,1.48.07.22.2.4.38.54s.34.21.5.21c.61,0,1.19-.47,1.74-1.4l.42.31c-.76,1.81-2.01,2.72-3.72,2.72-.84,0-1.55-.23-2.13-.7-.58-.47-.95-.99-1.11-1.57-.09-.32-.14-1.19-.14-2.61v-7.15h-1.73v-.5c1.19-.84,2.2-1.72,3.04-2.65.84-.92,1.57-1.96,2.19-3.1h.47Z"/>
    <path class="cls-2" d="M319.28,223.23h-7.26c.08,1.76.55,3.14,1.4,4.16.65.78,1.43,1.18,2.35,1.18.57,0,1.08-.16,1.54-.47s.96-.88,1.49-1.71l.48.31c-.72,1.46-1.51,2.5-2.38,3.11-.87.61-1.87.91-3.02.91-1.96,0-3.45-.75-4.46-2.27-.81-1.22-1.22-2.73-1.22-4.53,0-2.21.6-3.97,1.79-5.27s2.59-1.96,4.2-1.96c1.34,0,2.5.55,3.49,1.65s1.52,2.73,1.59,4.89ZM315.8,222.28c0-1.52-.08-2.56-.25-3.13s-.42-1-.77-1.29c-.2-.17-.46-.25-.79-.25-.49,0-.89.24-1.2.72-.56.84-.83,1.99-.83,3.46v.5h3.85Z"/>
    <path class="cls-2" d="M326.43,217.09v3c.88-1.37,1.65-2.28,2.31-2.73s1.3-.67,1.91-.67c.53,0,.95.16,1.27.49.32.33.47.79.47,1.38,0,.63-.15,1.12-.46,1.47-.31.35-.68.52-1.11.52-.5,0-.94-.16-1.3-.48-.37-.32-.59-.5-.65-.54-.09-.06-.2-.08-.33-.08-.27,0-.53.1-.78.31-.39.32-.68.78-.88,1.37-.3.92-.45,1.93-.45,3.03v3.84c.01.54.05.88.11,1.03.11.26.28.44.5.56s.6.19,1.13.22v.51h-7.15v-.51c.58-.05.96-.21,1.17-.47.2-.27.3-.98.3-2.13v-7.32c0-.76-.04-1.24-.11-1.45-.09-.26-.23-.46-.41-.58s-.5-.21-.95-.25v-.52h5.41Z"/>
    <path class="cls-2" d="M342.17,216.72l.21,4.52h-.48c-.58-1.34-1.17-2.26-1.79-2.75s-1.23-.74-1.85-.74c-.39,0-.72.13-.99.39s-.41.56-.41.9c0,.25.09.5.28.74.3.39,1.15,1.05,2.54,1.99s2.3,1.74,2.74,2.39c.44.66.66,1.39.66,2.2,0,.74-.18,1.46-.55,2.17-.37.71-.89,1.25-1.56,1.63-.67.38-1.41.57-2.22.57-.63,0-1.48-.2-2.53-.59-.28-.1-.48-.16-.58-.16-.31,0-.57.24-.78.71h-.47l-.23-4.76h.48c.42,1.25,1.01,2.18,1.75,2.8s1.44.93,2.1.93c.45,0,.82-.14,1.11-.42s.43-.62.43-1.01c0-.45-.14-.84-.42-1.18-.28-.33-.92-.83-1.9-1.5-1.44-1-2.38-1.77-2.8-2.29-.62-.77-.94-1.63-.94-2.56,0-1.02.35-1.94,1.06-2.77s1.72-1.24,3.05-1.24c.72,0,1.41.17,2.08.52.25.14.46.21.62.21.17,0,.31-.04.41-.11.1-.07.27-.27.5-.6h.48Z"/>
    <path class="cls-1" d="M360.33,225.13h-8.25v-2.93h8.25v2.93Z"/>
  </g>
  <g>
    <path class="cls-2" d="M33.82,58.91l47.16,78,1.29-.98,46.61-77.02h24.33c.57,3.41-4.03,3.55-6.51,5.11-2.35,1.48-4.14,3.49-5.12,6.12l-.29,103.08c.68,4.37,3.1,6.32,6.64,8.34,2.34,1.33,6.08.95,5.27,4.1h-37.43c-.71-3.4,4.24-3.29,6.7-4.91,1.27-.83,5.27-5.52,5.27-6.72v-96.38l-49.41,82.5-42.65-69.38c-.41-.74-1.5.67-1.5.76v81c0,1.49,2.48,5.66,3.71,6.78,2.91,2.66,8.23,2.54,9.02,6.34H14.73l.45-2.32c5.07-1.45,10.32-3.59,11.48-9.36l-.3-103.85c-.54-2.06-3.53-5.55-5.37-6.62-2.47-1.43-6.86-.92-6.25-4.61h19.09Z"/>
    <path class="cls-2" d="M353.05,97.91c-1.59,1.83-4.68-7.27-5.1-8.01-19.24-34.19-55.91-27.15-75.6,2.53-28.48,42.93,16.06,110.58,67.47,77.35,2.19-1.42,6.24-6.25,8.75-5.57,9.35,5-7.96,14.6-12.76,16.56-34.8,14.22-73.35-3.01-82.86-39.95-12.54-48.71,24.46-93.26,75.22-79.87,3.58.94,14.74,6.81,16.13,6.77,3.55-.11,6.43-4.76,6.5-8.06.48-.44,2.24.68,2.24,1.13v37.12Z"/>
    <path class="cls-2" d="M184.27,120.41c-23.65,3.36-27.02,50.49.97,57.53,23.66,5.95,49.97-21.42,28.97-36.53-6.64-4.78-15.76.62-11.75,8.02,1.22,2.24,4.26,3.3,2.78,6.22-3.76,4.22-7.75-1.78-8.99-5.26-4.28-12.01,6.81-22.36,17.73-24.97,7.37-1.76,18.92-.1,24.81-3.64,6.25-3.76.17-8.67,1.33-12.13,6.27-6.26,8.06,6.58,7.34,11.08-2.41,15.13-24.36,11.98-35.13,10.93,5.12,3.89,9.16,5.21,12.36,11.23,9.76,18.35-7.52,38.83-26.22,40.5s-34.17-4.35-41.14-22.5c-7.96-20.73,2.26-43.55,25.06-46.49l-.4-2.22c-3.02-6.31-12.1-15.78-14.22-21.82-.73-2.09,1.29-2.77,2.98-2.99,7.29-.95,33.25-.98,40.49,0,.99.13,3.33.96,3.33,1.91v12.75l-1.5.76c-1.49-3.26-4.32-9.39-8.6-9.39h-20.96l-.76,1.49c2.68,5.89,13.7,17.84,15.03,23.23.24.99.02,2.28-.8,2.28-3.79,0-9.22-.5-12.72,0Z"/>
    <path class="cls-1" d="M238.53,91.9l-4.34-16.34c-.15-2.12,2.15-7.65-2.68-6.09-3.89,1.26.77,4.52,1.03,5,1.82,3.33,2.62,12.58,3.74,16.68-2.84-2.57-4.65-6.1-7.09-9.01-1.84-2.19-5.81-4.96-6.95-7.29-1.86-3.8-.09-6.48-.13-10.33-.02-2.55-2.09-11.11-.81-12.01l13.48-3.37c-.48,6.83,8.78,15.45,8.21,21.29-.32,3.26-2.75,9.01-3.5,13.05-.49,2.63-.4,5.71-.96,8.41Z"/>
    <path class="cls-1" d="M232.55,43.15l-13.47,3.01-7.43-26.19c4.54-.99,9.61-2.84,14.15-3.52.81-.12,1.28-.53,1.91.42l4.85,26.27Z"/>
    <path class="cls-1" d="M235.47,44.72l-.37,3.02c-.6.42-12.96,3.53-14.26,3.63-2.83.21-4.88-1.74-2.31-3.14,1.89-1.02,16.22-4.75,16.94-3.51Z"/>
    <path class="cls-1" d="M239.08,98.02c5.93-1.58,6.89,8.6.68,7.94-4.47-.47-4.52-6.92-.68-7.94Z"/>
  </g>
</svg>